# xmcd
#
# Track frame offsets:
#	150
#	18974
#	39524
#	56324
#
# Disc length: 954 seconds
#
# Revision: 0
# Processed by: cddbd v1.5.2PL0 Copyright (c) Steve Scherf et al.
# Submitted via: EasyCDDAExtractor 11.0.0.1
#
DISCID=2403b804
DTITLE=ΦΑΡΜΑΚΗ ΧΡΙΣΤΙΝΑ - ΠΟΣΑ ΔΕΝ ΜΟΥ ΕΙΠΕ ΤΟ ΦΕΓΓΑΡΙ
DYEAR=1998
DGENRE=ΛΑΪΚΑ
TTITLE0=Φαρμάκη Χριστίνα_01 Το φεγγάρι
TTITLE1=Φαρμάκη Χριστίνα_02 Είσαι το μυστικό
TTITLE2=Φαρμάκη Χριστίνα_03 Η λεωφόρος
TTITLE3=Φαρμάκη Χριστίνα_04 Έλα να κάνουμε
EXTD=
EXTT0=
EXTT1=
EXTT2=
EXTT3=
PLAYORDER=
